<svg xmlns="http://www.w3.org/2000/svg" viewBox="0 0 64 64" role="img" aria-labelledby="title">
  <title id="title">A small black cat</title>
  <path fill="#30343b" d="M15 23 10 9l14 8c2.5-1 5.2-1.5 8-1.5s5.5.5 8 1.5l14-8-5 14c2.6 3.5 4 7.8 4 12.3C53 47.3 43.6 55 32 55S11 47.3 11 35.3c0-4.5 1.4-8.8 4-12.3Z"/>
  <ellipse cx="24" cy="34" rx="3" ry="4" fill="#f7f1df"/>
  <ellipse cx="40" cy="34" rx="3" ry="4" fill="#f7f1df"/>
  <circle cx="24.7" cy="34.7" r="1.2" fill="#30343b"/>
  <circle cx="40.7" cy="34.7" r="1.2" fill="#30343b"/>
  <path d="M29 42c2 1.8 4 1.8 6 0" fill="none" stroke="#f7f1df" stroke-linecap="round" stroke-width="2"/>
  <path d="M16 40 4 37m13 7L6 46m42-6 12-3m-13 7 11 2" fill="none" stroke="#30343b" stroke-linecap="round" stroke-width="2"/>
</svg>
